<svg xmlns="http://www.w3.org/2000/svg" version="1.1" width="15.5in" height="8.5in" viewBox = " 0 0 1395 765" >
<!-- Front--> 
<g transform="translate(22.5, 22.5) " > 
<polygon style="stroke:#000000; fill:none; stroke-width:0.9" points="0, 0 56.25, 0 56.25, 21.24 112.5, 21.24 112.5, 0 157.5, 0 157.5, 21.24 202.5, 21.24 202.5, 0 247.5, 0 247.5, 21.24 292.5, 21.24 292.5, 0 337.5, 0 337.5, 21.24 393.75, 21.24 393.75, 0 450, 0 450, 56.25 428.76, 56.25 428.76, 112.5 450, 112.5 450, 157.5 428.76, 157.5 428.76, 213.75 450, 213.75 450, 270 393.75, 270 393.75, 248.76 337.5, 248.76 337.5, 270 292.5, 270 292.5, 248.76 247.5, 248.76 247.5, 270 202.5, 270 202.5, 248.76 157.5, 248.76 157.5, 270 112.5, 270 112.5, 248.76 56.25, 248.76 56.25, 270 0, 270 0, 213.75 21.24, 213.75 21.24, 157.5 0, 157.5 0, 112.5 21.24, 112.5 21.24, 56.25 0, 56.25 "/> 
 
 <g transform="scale(0.02197265625)" ><g transform="translate(-5446,819)" ><path transform="translate(10240, 6144)rotate(180) scale(-1, 1)" stroke-width="0" fill="#000000" d="M1343 0h-193.999l-799 1227h-8c10.667 -144 16 -276 16 -396v-831h-157v1462h192l797 -1222h8c-1.33301 18 -4.33301 75.833 -9 173.5s-6.33398 167.5 -5.00098 209.5v839h159v-1462z"/>
<path transform="translate(11784, 6144)rotate(180) scale(-1, 1)" stroke-width="0" fill="#000000" d="M342 0h-166v1096h166v-1096zM162 1393c0 38 9.33301 65.833 28 83.5s42 26.5 70 26.5c26.667 0 49.667 -9 69 -27s29 -45.667 29 -83s-9.66699 -65.166 -29 -83.499s-42.333 -27.5 -69 -27.5c-28 0 -51.333 9.16699 -70 27.5s-28 46.166 -28 83.499z"/>
<path transform="translate(12302, 6144)rotate(180) scale(-1, 1)" stroke-width="0" fill="#000000" d="M1073 1096v-105.001l-203 -24c18.667 -23.333 35.334 -53.833 50.001 -91.5s22 -80.167 22 -127.5c0 -107.333 -36.667 -193 -110 -257s-174 -96 -302 -96c-32.667 0 -63.334 2.66699 -92.001 8c-70.667 -37.333 -106 -84.333 -106 -141c0 -30 12.333 -52.167 37 -66.5 s67 -21.5 127 -21.5h194c118.667 0 209.834 -25 273.501 -75s95.5 -122.667 95.5 -218c0 -121.333 -48.667 -213.833 -146 -277.5s-239.333 -95.5 -426 -95.5c-143.333 0 -253.833 26.667 -331.5 80s-116.5 128.666 -116.5 225.999c0 66.667 21.333 124.334 64 173.001 s102.667 81.667 180 99c-28 12.667 -51.5 32.334 -70.5 59.001s-28.5 57.667 -28.5 93c0 40 10.667 75 32 105s55 59 101 87c-56.667 23.333 -102.834 63 -138.501 119s-53.5 120 -53.5 192c0 120 36 212.5 108 277.5s174 97.5 306 97.5c57.333 0 109 -6.66699 155 -20h379z M199 -184.001c0 -59.333 25 -104.333 75 -135s121.667 -46 215 -46c139.333 0 242.5 20.833 309.5 62.5s100.5 98.167 100.5 169.5c0 59.333 -18.333 100.5 -55 123.5s-105.667 34.5 -207 34.5h-199c-75.333 0 -134 -18 -176 -54s-63 -87.667 -63 -155zM289 744.999 c0 -76.667 21.668 -134.667 65.001 -174s103.666 -59 180.999 -59c162 0 243 78.667 243 236c0 164.667 -82 247 -246 247c-78 0 -138 -21 -180 -63s-63 -104.333 -63 -187z"/>
<path transform="translate(13424, 6144)rotate(180) scale(-1, 1)" stroke-width="0" fill="#000000" d="M926 0l0.00195312 709.002c0 89.333 -20.333 156 -61 200s-104.334 66 -191.001 66c-115.333 0 -199.5 -31.333 -252.5 -94s-79.5 -165.334 -79.5 -308.001v-573h-166v1556h166v-471c0 -56.667 -2.66699 -103.667 -8 -141h10c32.667 52.667 79.167 94.167 139.5 124.5 s129.166 45.5 206.499 45.5c134 0 234.5 -31.833 301.5 -95.5s100.5 -164.834 100.5 -303.501v-715h-166z"/>
<path transform="translate(14681, 6144)rotate(180) scale(-1, 1)" stroke-width="0" fill="#000000" d="M530 117c29.333 0 57.667 2.16797 85 6.50098s49 8.83301 65 13.5v-127c-18 -8.66699 -44.5 -15.834 -79.5 -21.501s-66.5 -8.5 -94.5 -8.5c-212 0 -318 111.667 -318 335v652h-157v80l157 69l70 234h96v-254h318v-129h-318v-645c0 -66 15.667 -116.667 47 -152 s74.333 -53 129 -53z"/>
<path transform="translate(15404, 6144)rotate(180) scale(-1, 1)" stroke-width="0" fill="#000000" d=""/>
<path transform="translate(15936, 6144)rotate(180) scale(-1, 1)" stroke-width="0" fill="#000000" d="M201 0v1462h170v-1308h645v-154h-815z"/>
<path transform="translate(16999, 6144)rotate(180) scale(-1, 1)" stroke-width="0" fill="#000000" d="M850 0l-33.001 156h-8c-54.667 -68.667 -109.167 -115.167 -163.5 -139.5s-122.166 -36.5 -203.499 -36.5c-108.667 0 -193.834 28 -255.501 84s-92.5 135.667 -92.5 239c0 221.333 177 337.333 531 348l186 6v68c0 86 -18.5 149.5 -55.5 190.5s-96.167 61.5 -177.5 61.5 c-91.333 0 -194.666 -28 -309.999 -84l-51 127c54 29.333 113.167 52.333 177.5 69s128.833 25 193.5 25c130.667 0 227.5 -29 290.5 -87s94.5 -151 94.5 -279v-748h-123zM474.999 117c103.333 0 184.501 28.333 243.501 85s88.5 136 88.5 238v99l-166 -7 c-132 -4.66699 -227.167 -25.167 -285.5 -61.5s-87.5 -92.833 -87.5 -169.5c0 -60 18.167 -105.667 54.5 -137s87.166 -47 152.499 -47z"/>
<path transform="translate(17972, 6144)rotate(180) scale(-1, 1)" stroke-width="0" fill="#000000" d="M1573 0l-0.00195312 713c0 87.333 -18.667 152.833 -56 196.5s-95.333 65.5 -174 65.5c-103.333 0 -179.666 -29.667 -228.999 -89s-74 -150.666 -74 -273.999v-612h-166v713c0 87.333 -18.667 152.833 -56 196.5s-95.666 65.5 -174.999 65.5 c-104 0 -180.167 -31.167 -228.5 -93.5s-72.5 -164.5 -72.5 -306.5v-575h-166v1096h135l27 -150h8c31.333 53.333 75.5 95 132.5 125s120.833 45 191.5 45c171.333 0 283.333 -62 336 -186h8c32.667 57.333 80 102.666 142 135.999s132.667 50 212 50 c124 0 216.833 -31.833 278.5 -95.5s92.5 -165.5 92.5 -305.5v-715h-166z"/>
<path transform="translate(19877, 6144)rotate(180) scale(-1, 1)" stroke-width="0" fill="#000000" d="M686 -20c-71.333 0 -136.501 13.166 -195.501 39.499s-108.5 66.833 -148.5 121.5h-12c8 -64 12 -124.667 12 -182v-451h-166v1588h135l23 -150h8c42.667 60 92.334 103.333 149.001 130s121.667 40 195 40c145.333 0 257.5 -49.667 336.5 -149 s118.5 -238.666 118.5 -417.999c0 -180 -40.167 -319.833 -120.5 -419.5s-191.833 -149.5 -334.5 -149.5zM661.999 974.999c-112 0 -193 -31.001 -243 -93.001s-75.667 -160.667 -77 -296v-37c0 -154 25.667 -264.167 77 -330.5s133.666 -99.5 246.999 -99.5 c94.667 0 168.834 38.333 222.501 115s80.5 182.334 80.5 317.001c0 136.667 -26.833 241.5 -80.5 314.5s-129.167 109.5 -226.5 109.5z"/>
</g></g> 
</g>
<!-- Back--> 
<g transform="translate(472.5, 22.5) " > 
<polygon style="stroke:#000000; fill:none; stroke-width:0.9" points="0, 0 56.25, 0 56.25, 21.24 112.5, 21.24 112.5, 0 157.5, 0 157.5, 21.24 202.5, 21.24 202.5, 0 247.5, 0 247.5, 21.24 292.5, 21.24 292.5, 0 337.5, 0 337.5, 21.24 393.75, 21.24 393.75, 0 450, 0 450, 56.25 428.76, 56.25 428.76, 112.5 450, 112.5 450, 157.5 428.76, 157.5 428.76, 213.75 450, 213.75 450, 270 393.75, 270 393.75, 248.76 337.5, 248.76 337.5, 270 292.5, 270 292.5, 248.76 247.5, 248.76 247.5, 270 202.5, 270 202.5, 248.76 157.5, 248.76 157.5, 270 112.5, 270 112.5, 248.76 56.25, 248.76 56.25, 270 0, 270 0, 213.75 21.24, 213.75 21.24, 157.5 0, 157.5 0, 112.5 21.24, 112.5 21.24, 56.25 0, 56.25 "/> 
 
 <g transform="scale(0.02197265625)" ><g transform="translate(-5446,819)" ><path transform="translate(10240, 6144)rotate(180) scale(-1, 1)" stroke-width="0" fill="#000000" d="M1343 0h-193.999l-799 1227h-8c10.667 -144 16 -276 16 -396v-831h-157v1462h192l797 -1222h8c-1.33301 18 -4.33301 75.833 -9 173.5s-6.33398 167.5 -5.00098 209.5v839h159v-1462z"/>
<path transform="translate(11784, 6144)rotate(180) scale(-1, 1)" stroke-width="0" fill="#000000" d="M342 0h-166v1096h166v-1096zM162 1393c0 38 9.33301 65.833 28 83.5s42 26.5 70 26.5c26.667 0 49.667 -9 69 -27s29 -45.667 29 -83s-9.66699 -65.166 -29 -83.499s-42.333 -27.5 -69 -27.5c-28 0 -51.333 9.16699 -70 27.5s-28 46.166 -28 83.499z"/>
<path transform="translate(12302, 6144)rotate(180) scale(-1, 1)" stroke-width="0" fill="#000000" d="M1073 1096v-105.001l-203 -24c18.667 -23.333 35.334 -53.833 50.001 -91.5s22 -80.167 22 -127.5c0 -107.333 -36.667 -193 -110 -257s-174 -96 -302 -96c-32.667 0 -63.334 2.66699 -92.001 8c-70.667 -37.333 -106 -84.333 -106 -141c0 -30 12.333 -52.167 37 -66.5 s67 -21.5 127 -21.5h194c118.667 0 209.834 -25 273.501 -75s95.5 -122.667 95.5 -218c0 -121.333 -48.667 -213.833 -146 -277.5s-239.333 -95.5 -426 -95.5c-143.333 0 -253.833 26.667 -331.5 80s-116.5 128.666 -116.5 225.999c0 66.667 21.333 124.334 64 173.001 s102.667 81.667 180 99c-28 12.667 -51.5 32.334 -70.5 59.001s-28.5 57.667 -28.5 93c0 40 10.667 75 32 105s55 59 101 87c-56.667 23.333 -102.834 63 -138.501 119s-53.5 120 -53.5 192c0 120 36 212.5 108 277.5s174 97.5 306 97.5c57.333 0 109 -6.66699 155 -20h379z M199 -184.001c0 -59.333 25 -104.333 75 -135s121.667 -46 215 -46c139.333 0 242.5 20.833 309.5 62.5s100.5 98.167 100.5 169.5c0 59.333 -18.333 100.5 -55 123.5s-105.667 34.5 -207 34.5h-199c-75.333 0 -134 -18 -176 -54s-63 -87.667 -63 -155zM289 744.999 c0 -76.667 21.668 -134.667 65.001 -174s103.666 -59 180.999 -59c162 0 243 78.667 243 236c0 164.667 -82 247 -246 247c-78 0 -138 -21 -180 -63s-63 -104.333 -63 -187z"/>
<path transform="translate(13424, 6144)rotate(180) scale(-1, 1)" stroke-width="0" fill="#000000" d="M926 0l0.00195312 709.002c0 89.333 -20.333 156 -61 200s-104.334 66 -191.001 66c-115.333 0 -199.5 -31.333 -252.5 -94s-79.5 -165.334 -79.5 -308.001v-573h-166v1556h166v-471c0 -56.667 -2.66699 -103.667 -8 -141h10c32.667 52.667 79.167 94.167 139.5 124.5 s129.166 45.5 206.499 45.5c134 0 234.5 -31.833 301.5 -95.5s100.5 -164.834 100.5 -303.501v-715h-166z"/>
<path transform="translate(14681, 6144)rotate(180) scale(-1, 1)" stroke-width="0" fill="#000000" d="M530 117c29.333 0 57.667 2.16797 85 6.50098s49 8.83301 65 13.5v-127c-18 -8.66699 -44.5 -15.834 -79.5 -21.501s-66.5 -8.5 -94.5 -8.5c-212 0 -318 111.667 -318 335v652h-157v80l157 69l70 234h96v-254h318v-129h-318v-645c0 -66 15.667 -116.667 47 -152 s74.333 -53 129 -53z"/>
<path transform="translate(15404, 6144)rotate(180) scale(-1, 1)" stroke-width="0" fill="#000000" d=""/>
<path transform="translate(15936, 6144)rotate(180) scale(-1, 1)" stroke-width="0" fill="#000000" d="M201 0v1462h170v-1308h645v-154h-815z"/>
<path transform="translate(16999, 6144)rotate(180) scale(-1, 1)" stroke-width="0" fill="#000000" d="M850 0l-33.001 156h-8c-54.667 -68.667 -109.167 -115.167 -163.5 -139.5s-122.166 -36.5 -203.499 -36.5c-108.667 0 -193.834 28 -255.501 84s-92.5 135.667 -92.5 239c0 221.333 177 337.333 531 348l186 6v68c0 86 -18.5 149.5 -55.5 190.5s-96.167 61.5 -177.5 61.5 c-91.333 0 -194.666 -28 -309.999 -84l-51 127c54 29.333 113.167 52.333 177.5 69s128.833 25 193.5 25c130.667 0 227.5 -29 290.5 -87s94.5 -151 94.5 -279v-748h-123zM474.999 117c103.333 0 184.501 28.333 243.501 85s88.5 136 88.5 238v99l-166 -7 c-132 -4.66699 -227.167 -25.167 -285.5 -61.5s-87.5 -92.833 -87.5 -169.5c0 -60 18.167 -105.667 54.5 -137s87.166 -47 152.499 -47z"/>
<path transform="translate(17972, 6144)rotate(180) scale(-1, 1)" stroke-width="0" fill="#000000" d="M1573 0l-0.00195312 713c0 87.333 -18.667 152.833 -56 196.5s-95.333 65.5 -174 65.5c-103.333 0 -179.666 -29.667 -228.999 -89s-74 -150.666 -74 -273.999v-612h-166v713c0 87.333 -18.667 152.833 -56 196.5s-95.666 65.5 -174.999 65.5 c-104 0 -180.167 -31.167 -228.5 -93.5s-72.5 -164.5 -72.5 -306.5v-575h-166v1096h135l27 -150h8c31.333 53.333 75.5 95 132.5 125s120.833 45 191.5 45c171.333 0 283.333 -62 336 -186h8c32.667 57.333 80 102.666 142 135.999s132.667 50 212 50 c124 0 216.833 -31.833 278.5 -95.5s92.5 -165.5 92.5 -305.5v-715h-166z"/>
<path transform="translate(19877, 6144)rotate(180) scale(-1, 1)" stroke-width="0" fill="#000000" d="M686 -20c-71.333 0 -136.501 13.166 -195.501 39.499s-108.5 66.833 -148.5 121.5h-12c8 -64 12 -124.667 12 -182v-451h-166v1588h135l23 -150h8c42.667 60 92.334 103.333 149.001 130s121.667 40 195 40c145.333 0 257.5 -49.667 336.5 -149 s118.5 -238.666 118.5 -417.999c0 -180 -40.167 -319.833 -120.5 -419.5s-191.833 -149.5 -334.5 -149.5zM661.999 974.999c-112 0 -193 -31.001 -243 -93.001s-75.667 -160.667 -77 -296v-37c0 -154 25.667 -264.167 77 -330.5s133.666 -99.5 246.999 -99.5 c94.667 0 168.834 38.333 222.501 115s80.5 182.334 80.5 317.001c0 136.667 -26.833 241.5 -80.5 314.5s-129.167 109.5 -226.5 109.5z"/>
</g></g> 
</g>
<!-- Left--> 
<g transform="translate(922.5, 22.5) " > 
<polygon style="stroke:#000000; fill:none; stroke-width:0.9" points="21.24, 0 56.25, 0 56.25, 21.24 112.5, 21.24 112.5, 0 157.5, 0 157.5, 21.24 202.5, 21.24 202.5, 0 247.5, 0 247.5, 21.24 292.5, 21.24 292.5, 0 337.5, 0 337.5, 21.24 393.75, 21.24 393.75, 0 428.76, 0 428.76, 56.25 450, 56.25 450, 112.5 428.76, 112.5 428.76, 157.5 450, 157.5 450, 213.75 428.76, 213.75 428.76, 270 393.75, 270 393.75, 248.76 337.5, 248.76 337.5, 270 292.5, 270 292.5, 248.76 247.5, 248.76 247.5, 270 202.5, 270 202.5, 248.76 157.5, 248.76 157.5, 270 112.5, 270 112.5, 248.76 56.25, 248.76 56.25, 270 21.24, 270 21.24, 213.75 0, 213.75 0, 157.5 21.24, 157.5 21.24, 112.5 0, 112.5 0, 56.25 21.24, 56.25 "/> 
 
 <g transform="scale(0.02197265625)" ><g transform="translate(-4299,819)" ><path transform="translate(10240, 6144)rotate(180) scale(-1, 1)" stroke-width="0" fill="#000000" d="M1016 0h-815v1462h815v-151h-645v-471h606v-150h-606v-538h645v-152z"/>
<path transform="translate(11256, 6144)rotate(180) scale(-1, 1)" stroke-width="0" fill="#000000" d="M850 0l-33.001 156h-8c-54.667 -68.667 -109.167 -115.167 -163.5 -139.5s-122.166 -36.5 -203.499 -36.5c-108.667 0 -193.834 28 -255.501 84s-92.5 135.667 -92.5 239c0 221.333 177 337.333 531 348l186 6v68c0 86 -18.5 149.5 -55.5 190.5s-96.167 61.5 -177.5 61.5 c-91.333 0 -194.666 -28 -309.999 -84l-51 127c54 29.333 113.167 52.333 177.5 69s128.833 25 193.5 25c130.667 0 227.5 -29 290.5 -87s94.5 -151 94.5 -279v-748h-123zM474.999 117c103.333 0 184.501 28.333 243.501 85s88.5 136 88.5 238v99l-166 -7 c-132 -4.66699 -227.167 -25.167 -285.5 -61.5s-87.5 -92.833 -87.5 -169.5c0 -60 18.167 -105.667 54.5 -137s87.166 -47 152.499 -47z"/>
<path transform="translate(12229, 6144)rotate(180) scale(-1, 1)" stroke-width="0" fill="#000000" d="M883 299c0 -102 -38.0029 -180.666 -114.003 -235.999s-182.667 -83 -320 -83c-145.333 0 -258.666 23 -339.999 69v154c52.667 -26.667 109.167 -47.667 169.5 -63s118.5 -23 174.5 -23c86.667 0 153.334 13.833 200.001 41.5s70 69.834 70 126.501 c0 42.667 -18.5 79.167 -55.5 109.5s-109.167 66.166 -216.5 107.499c-102 38 -174.5 71.167 -217.5 99.5s-75 60.5 -96 96.5s-31.5 79 -31.5 129c0 89.333 36.333 159.833 109 211.5s172.334 77.5 299.001 77.5c118 0 233.333 -24 346 -72l-59 -135 c-110 45.333 -209.667 68 -299 68c-78.667 0 -138 -12.333 -178 -37s-60 -58.667 -60 -102c0 -29.333 7.5 -54.333 22.5 -75s39.167 -40.334 72.5 -59.001s97.333 -45.667 192 -81c130 -47.333 217.833 -95 263.5 -143s68.5 -108.333 68.5 -181z"/>
<path transform="translate(13206, 6144)rotate(180) scale(-1, 1)" stroke-width="0" fill="#000000" d="M1071 0l-200.998 643.002c-12.667 39.333 -36.334 128.666 -71.001 267.999h-8c-26.667 -116.667 -50 -206.667 -70 -270l-207 -641h-192l-299 1096h174l161.5 -629c37 -144 58.167 -241 63.5 -291h8c7.33301 38 19.166 87.167 35.499 147.5s30.5 108.166 42.5 143.499 l201 629h180l196 -629c37.333 -114.667 62.666 -211 75.999 -289h8c2.66699 24 9.83398 61 21.501 111s81.167 319 208.5 807h172l-303 -1096h-197z"/>
<path transform="translate(14799, 6144)rotate(180) scale(-1, 1)" stroke-width="0" fill="#000000" d="M850 0l-33.001 156h-8c-54.667 -68.667 -109.167 -115.167 -163.5 -139.5s-122.166 -36.5 -203.499 -36.5c-108.667 0 -193.834 28 -255.501 84s-92.5 135.667 -92.5 239c0 221.333 177 337.333 531 348l186 6v68c0 86 -18.5 149.5 -55.5 190.5s-96.167 61.5 -177.5 61.5 c-91.333 0 -194.666 -28 -309.999 -84l-51 127c54 29.333 113.167 52.333 177.5 69s128.833 25 193.5 25c130.667 0 227.5 -29 290.5 -87s94.5 -151 94.5 -279v-748h-123zM474.999 117c103.333 0 184.501 28.333 243.501 85s88.5 136 88.5 238v99l-166 -7 c-132 -4.66699 -227.167 -25.167 -285.5 -61.5s-87.5 -92.833 -87.5 -169.5c0 -60 18.167 -105.667 54.5 -137s87.166 -47 152.499 -47z"/>
<path transform="translate(15772, 6144)rotate(180) scale(-1, 1)" stroke-width="0" fill="#000000" d="M676 1116c48.667 0 92.333 -4 131 -12l-23 -154c-45.333 10 -85.333 15 -120 15c-88.667 0 -164.5 -36 -227.5 -108s-94.5 -161.667 -94.5 -269v-588h-166v1096h137l19 -203h8c40.667 71.333 89.667 126.333 147 165s120.333 58 189 58z"/>
<path transform="translate(16608, 6144)rotate(180) scale(-1, 1)" stroke-width="0" fill="#000000" d="M850 0l-33.001 156h-8c-54.667 -68.667 -109.167 -115.167 -163.5 -139.5s-122.166 -36.5 -203.499 -36.5c-108.667 0 -193.834 28 -255.501 84s-92.5 135.667 -92.5 239c0 221.333 177 337.333 531 348l186 6v68c0 86 -18.5 149.5 -55.5 190.5s-96.167 61.5 -177.5 61.5 c-91.333 0 -194.666 -28 -309.999 -84l-51 127c54 29.333 113.167 52.333 177.5 69s128.833 25 193.5 25c130.667 0 227.5 -29 290.5 -87s94.5 -151 94.5 -279v-748h-123zM474.999 117c103.333 0 184.501 28.333 243.501 85s88.5 136 88.5 238v99l-166 -7 c-132 -4.66699 -227.167 -25.167 -285.5 -61.5s-87.5 -92.833 -87.5 -169.5c0 -60 18.167 -105.667 54.5 -137s87.166 -47 152.499 -47z"/>
<path transform="translate(17581, 6144)rotate(180) scale(-1, 1)" stroke-width="0" fill="#000000" d="M926 0l0.00195312 709c0 89.333 -20.333 156 -61 200s-104.334 66 -191.001 66c-114.667 0 -198.667 -31 -252 -93s-80 -164.333 -80 -307v-575h-166v1096h135l27 -150h8c34 54 81.667 95.833 143 125.5s129.666 44.5 204.999 44.5c132 0 231.333 -31.833 298 -95.5 s100 -165.5 100 -305.5v-715h-166z"/>
</g></g> 
</g>
<!-- Right--> 
<g transform="translate(922.5, 292.5) " > 
<polygon style="stroke:#000000; fill:none; stroke-width:0.9" points="21.24, 0 56.25, 0 56.25, 21.24 112.5, 21.24 112.5, 0 157.5, 0 157.5, 21.24 202.5, 21.24 202.5, 0 247.5, 0 247.5, 21.24 292.5, 21.24 292.5, 0 337.5, 0 337.5, 21.24 393.75, 21.24 393.75, 0 428.76, 0 428.76, 56.25 450, 56.25 450, 112.5 428.76, 112.5 428.76, 157.5 450, 157.5 450, 213.75 428.76, 213.75 428.76, 270 393.75, 270 393.75, 248.76 337.5, 248.76 337.5, 270 292.5, 270 292.5, 248.76 247.5, 248.76 247.5, 270 202.5, 270 202.5, 248.76 157.5, 248.76 157.5, 270 112.5, 270 112.5, 248.76 56.25, 248.76 56.25, 270 21.24, 270 21.24, 213.75 0, 213.75 0, 157.5 21.24, 157.5 21.24, 112.5 0, 112.5 0, 56.25 21.24, 56.25 "/> 
 
 <g transform="scale(0.02197265625)" ><g transform="translate(-4299,819)" ><path transform="translate(10240, 6144)rotate(180) scale(-1, 1)" stroke-width="0" fill="#000000" d="M1016 0h-815v1462h815v-151h-645v-471h606v-150h-606v-538h645v-152z"/>
<path transform="translate(11256, 6144)rotate(180) scale(-1, 1)" stroke-width="0" fill="#000000" d="M850 0l-33.001 156h-8c-54.667 -68.667 -109.167 -115.167 -163.5 -139.5s-122.166 -36.5 -203.499 -36.5c-108.667 0 -193.834 28 -255.501 84s-92.5 135.667 -92.5 239c0 221.333 177 337.333 531 348l186 6v68c0 86 -18.5 149.5 -55.5 190.5s-96.167 61.5 -177.5 61.5 c-91.333 0 -194.666 -28 -309.999 -84l-51 127c54 29.333 113.167 52.333 177.5 69s128.833 25 193.5 25c130.667 0 227.5 -29 290.5 -87s94.5 -151 94.5 -279v-748h-123zM474.999 117c103.333 0 184.501 28.333 243.501 85s88.5 136 88.5 238v99l-166 -7 c-132 -4.66699 -227.167 -25.167 -285.5 -61.5s-87.5 -92.833 -87.5 -169.5c0 -60 18.167 -105.667 54.5 -137s87.166 -47 152.499 -47z"/>
<path transform="translate(12229, 6144)rotate(180) scale(-1, 1)" stroke-width="0" fill="#000000" d="M883 299c0 -102 -38.0029 -180.666 -114.003 -235.999s-182.667 -83 -320 -83c-145.333 0 -258.666 23 -339.999 69v154c52.667 -26.667 109.167 -47.667 169.5 -63s118.5 -23 174.5 -23c86.667 0 153.334 13.833 200.001 41.5s70 69.834 70 126.501 c0 42.667 -18.5 79.167 -55.5 109.5s-109.167 66.166 -216.5 107.499c-102 38 -174.5 71.167 -217.5 99.5s-75 60.5 -96 96.5s-31.5 79 -31.5 129c0 89.333 36.333 159.833 109 211.5s172.334 77.5 299.001 77.5c118 0 233.333 -24 346 -72l-59 -135 c-110 45.333 -209.667 68 -299 68c-78.667 0 -138 -12.333 -178 -37s-60 -58.667 -60 -102c0 -29.333 7.5 -54.333 22.5 -75s39.167 -40.334 72.5 -59.001s97.333 -45.667 192 -81c130 -47.333 217.833 -95 263.5 -143s68.5 -108.333 68.5 -181z"/>
<path transform="translate(13206, 6144)rotate(180) scale(-1, 1)" stroke-width="0" fill="#000000" d="M1071 0l-200.998 643.002c-12.667 39.333 -36.334 128.666 -71.001 267.999h-8c-26.667 -116.667 -50 -206.667 -70 -270l-207 -641h-192l-299 1096h174l161.5 -629c37 -144 58.167 -241 63.5 -291h8c7.33301 38 19.166 87.167 35.499 147.5s30.5 108.166 42.5 143.499 l201 629h180l196 -629c37.333 -114.667 62.666 -211 75.999 -289h8c2.66699 24 9.83398 61 21.501 111s81.167 319 208.5 807h172l-303 -1096h-197z"/>
<path transform="translate(14799, 6144)rotate(180) scale(-1, 1)" stroke-width="0" fill="#000000" d="M850 0l-33.001 156h-8c-54.667 -68.667 -109.167 -115.167 -163.5 -139.5s-122.166 -36.5 -203.499 -36.5c-108.667 0 -193.834 28 -255.501 84s-92.5 135.667 -92.5 239c0 221.333 177 337.333 531 348l186 6v68c0 86 -18.5 149.5 -55.5 190.5s-96.167 61.5 -177.5 61.5 c-91.333 0 -194.666 -28 -309.999 -84l-51 127c54 29.333 113.167 52.333 177.5 69s128.833 25 193.5 25c130.667 0 227.5 -29 290.5 -87s94.5 -151 94.5 -279v-748h-123zM474.999 117c103.333 0 184.501 28.333 243.501 85s88.5 136 88.5 238v99l-166 -7 c-132 -4.66699 -227.167 -25.167 -285.5 -61.5s-87.5 -92.833 -87.5 -169.5c0 -60 18.167 -105.667 54.5 -137s87.166 -47 152.499 -47z"/>
<path transform="translate(15772, 6144)rotate(180) scale(-1, 1)" stroke-width="0" fill="#000000" d="M676 1116c48.667 0 92.333 -4 131 -12l-23 -154c-45.333 10 -85.333 15 -120 15c-88.667 0 -164.5 -36 -227.5 -108s-94.5 -161.667 -94.5 -269v-588h-166v1096h137l19 -203h8c40.667 71.333 89.667 126.333 147 165s120.333 58 189 58z"/>
<path transform="translate(16608, 6144)rotate(180) scale(-1, 1)" stroke-width="0" fill="#000000" d="M850 0l-33.001 156h-8c-54.667 -68.667 -109.167 -115.167 -163.5 -139.5s-122.166 -36.5 -203.499 -36.5c-108.667 0 -193.834 28 -255.501 84s-92.5 135.667 -92.5 239c0 221.333 177 337.333 531 348l186 6v68c0 86 -18.5 149.5 -55.5 190.5s-96.167 61.5 -177.5 61.5 c-91.333 0 -194.666 -28 -309.999 -84l-51 127c54 29.333 113.167 52.333 177.5 69s128.833 25 193.5 25c130.667 0 227.5 -29 290.5 -87s94.5 -151 94.5 -279v-748h-123zM474.999 117c103.333 0 184.501 28.333 243.501 85s88.5 136 88.5 238v99l-166 -7 c-132 -4.66699 -227.167 -25.167 -285.5 -61.5s-87.5 -92.833 -87.5 -169.5c0 -60 18.167 -105.667 54.5 -137s87.166 -47 152.499 -47z"/>
<path transform="translate(17581, 6144)rotate(180) scale(-1, 1)" stroke-width="0" fill="#000000" d="M926 0l0.00195312 709c0 89.333 -20.333 156 -61 200s-104.334 66 -191.001 66c-114.667 0 -198.667 -31 -252 -93s-80 -164.333 -80 -307v-575h-166v1096h135l27 -150h8c34 54 81.667 95.833 143 125.5s129.666 44.5 204.999 44.5c132 0 231.333 -31.833 298 -95.5 s100 -165.5 100 -305.5v-715h-166z"/>
</g></g> 
</g>
<!-- Top--> 
<g transform="translate(22.5, 292.5) " > 
<polygon style="stroke:#000000; fill:none; stroke-width:0.9" points="21.24, 21.24 56.25, 21.24 56.25, 0 112.5, 0 112.5, 21.24 157.5, 21.24 157.5, 0 202.5, 0 202.5, 21.24 247.5, 21.24 247.5, 0 292.5, 0 292.5, 21.24 337.5, 21.24 337.5, 0 393.75, 0 393.75, 21.24 428.76, 21.24 428.76, 56.25 450, 56.25 450, 112.5 428.76, 112.5 428.76, 157.5 450, 157.5 450, 202.5 428.76, 202.5 428.76, 247.5 450, 247.5 450, 292.5 428.76, 292.5 428.76, 337.5 450, 337.5 450, 393.75 428.76, 393.75 428.76, 428.76 393.75, 428.76 393.75, 450 337.5, 450 337.5, 428.76 292.5, 428.76 292.5, 450 247.5, 450 247.5, 428.76 202.5, 428.76 202.5, 450 157.5, 450 157.5, 428.76 112.5, 428.76 112.5, 450 56.25, 450 56.25, 428.76 21.24, 428.76 21.24, 393.75 0, 393.75 0, 337.5 21.24, 337.5 21.24, 292.5 0, 292.5 0, 247.5 21.24, 247.5 21.24, 202.5 0, 202.5 0, 157.5 21.24, 157.5 21.24, 112.5 0, 112.5 0, 56.25 21.24, 56.25 "/> 
 
 <g transform="scale(0.02197265625)" ><g transform="translate(-4299,819)" ><path transform="translate(10240, 10240)rotate(180) scale(-1, 1)" stroke-width="0" fill="#000000" d="M1016 0h-815v1462h815v-151h-645v-471h606v-150h-606v-538h645v-152z"/>
<path transform="translate(11256, 10240)rotate(180) scale(-1, 1)" stroke-width="0" fill="#000000" d="M850 0l-33.001 156h-8c-54.667 -68.667 -109.167 -115.167 -163.5 -139.5s-122.166 -36.5 -203.499 -36.5c-108.667 0 -193.834 28 -255.501 84s-92.5 135.667 -92.5 239c0 221.333 177 337.333 531 348l186 6v68c0 86 -18.5 149.5 -55.5 190.5s-96.167 61.5 -177.5 61.5 c-91.333 0 -194.666 -28 -309.999 -84l-51 127c54 29.333 113.167 52.333 177.5 69s128.833 25 193.5 25c130.667 0 227.5 -29 290.5 -87s94.5 -151 94.5 -279v-748h-123zM474.999 117c103.333 0 184.501 28.333 243.501 85s88.5 136 88.5 238v99l-166 -7 c-132 -4.66699 -227.167 -25.167 -285.5 -61.5s-87.5 -92.833 -87.5 -169.5c0 -60 18.167 -105.667 54.5 -137s87.166 -47 152.499 -47z"/>
<path transform="translate(12229, 10240)rotate(180) scale(-1, 1)" stroke-width="0" fill="#000000" d="M883 299c0 -102 -38.0029 -180.666 -114.003 -235.999s-182.667 -83 -320 -83c-145.333 0 -258.666 23 -339.999 69v154c52.667 -26.667 109.167 -47.667 169.5 -63s118.5 -23 174.5 -23c86.667 0 153.334 13.833 200.001 41.5s70 69.834 70 126.501 c0 42.667 -18.5 79.167 -55.5 109.5s-109.167 66.166 -216.5 107.499c-102 38 -174.5 71.167 -217.5 99.5s-75 60.5 -96 96.5s-31.5 79 -31.5 129c0 89.333 36.333 159.833 109 211.5s172.334 77.5 299.001 77.5c118 0 233.333 -24 346 -72l-59 -135 c-110 45.333 -209.667 68 -299 68c-78.667 0 -138 -12.333 -178 -37s-60 -58.667 -60 -102c0 -29.333 7.5 -54.333 22.5 -75s39.167 -40.334 72.5 -59.001s97.333 -45.667 192 -81c130 -47.333 217.833 -95 263.5 -143s68.5 -108.333 68.5 -181z"/>
<path transform="translate(13206, 10240)rotate(180) scale(-1, 1)" stroke-width="0" fill="#000000" d="M1071 0l-200.998 643.002c-12.667 39.333 -36.334 128.666 -71.001 267.999h-8c-26.667 -116.667 -50 -206.667 -70 -270l-207 -641h-192l-299 1096h174l161.5 -629c37 -144 58.167 -241 63.5 -291h8c7.33301 38 19.166 87.167 35.499 147.5s30.5 108.166 42.5 143.499 l201 629h180l196 -629c37.333 -114.667 62.666 -211 75.999 -289h8c2.66699 24 9.83398 61 21.501 111s81.167 319 208.5 807h172l-303 -1096h-197z"/>
<path transform="translate(14799, 10240)rotate(180) scale(-1, 1)" stroke-width="0" fill="#000000" d="M850 0l-33.001 156h-8c-54.667 -68.667 -109.167 -115.167 -163.5 -139.5s-122.166 -36.5 -203.499 -36.5c-108.667 0 -193.834 28 -255.501 84s-92.5 135.667 -92.5 239c0 221.333 177 337.333 531 348l186 6v68c0 86 -18.5 149.5 -55.5 190.5s-96.167 61.5 -177.5 61.5 c-91.333 0 -194.666 -28 -309.999 -84l-51 127c54 29.333 113.167 52.333 177.5 69s128.833 25 193.5 25c130.667 0 227.5 -29 290.5 -87s94.5 -151 94.5 -279v-748h-123zM474.999 117c103.333 0 184.501 28.333 243.501 85s88.5 136 88.5 238v99l-166 -7 c-132 -4.66699 -227.167 -25.167 -285.5 -61.5s-87.5 -92.833 -87.5 -169.5c0 -60 18.167 -105.667 54.5 -137s87.166 -47 152.499 -47z"/>
<path transform="translate(15772, 10240)rotate(180) scale(-1, 1)" stroke-width="0" fill="#000000" d="M676 1116c48.667 0 92.333 -4 131 -12l-23 -154c-45.333 10 -85.333 15 -120 15c-88.667 0 -164.5 -36 -227.5 -108s-94.5 -161.667 -94.5 -269v-588h-166v1096h137l19 -203h8c40.667 71.333 89.667 126.333 147 165s120.333 58 189 58z"/>
<path transform="translate(16608, 10240)rotate(180) scale(-1, 1)" stroke-width="0" fill="#000000" d="M850 0l-33.001 156h-8c-54.667 -68.667 -109.167 -115.167 -163.5 -139.5s-122.166 -36.5 -203.499 -36.5c-108.667 0 -193.834 28 -255.501 84s-92.5 135.667 -92.5 239c0 221.333 177 337.333 531 348l186 6v68c0 86 -18.5 149.5 -55.5 190.5s-96.167 61.5 -177.5 61.5 c-91.333 0 -194.666 -28 -309.999 -84l-51 127c54 29.333 113.167 52.333 177.5 69s128.833 25 193.5 25c130.667 0 227.5 -29 290.5 -87s94.5 -151 94.5 -279v-748h-123zM474.999 117c103.333 0 184.501 28.333 243.501 85s88.5 136 88.5 238v99l-166 -7 c-132 -4.66699 -227.167 -25.167 -285.5 -61.5s-87.5 -92.833 -87.5 -169.5c0 -60 18.167 -105.667 54.5 -137s87.166 -47 152.499 -47z"/>
<path transform="translate(17581, 10240)rotate(180) scale(-1, 1)" stroke-width="0" fill="#000000" d="M926 0l0.00195312 709c0 89.333 -20.333 156 -61 200s-104.334 66 -191.001 66c-114.667 0 -198.667 -31 -252 -93s-80 -164.333 -80 -307v-575h-166v1096h135l27 -150h8c34 54 81.667 95.833 143 125.5s129.666 44.5 204.999 44.5c132 0 231.333 -31.833 298 -95.5 s100 -165.5 100 -305.5v-715h-166z"/>
</g></g> 
 
 <g transform="scale(0.02197265625)" ><g transform="translate(-4299,819)" ><path transform="translate(10240, 10240)rotate(180) scale(-1, 1)" stroke-width="0" fill="#000000" d="M1016 0h-815v1462h815v-151h-645v-471h606v-150h-606v-538h645v-152z"/>
<path transform="translate(11256, 10240)rotate(180) scale(-1, 1)" stroke-width="0" fill="#000000" d="M850 0l-33.001 156h-8c-54.667 -68.667 -109.167 -115.167 -163.5 -139.5s-122.166 -36.5 -203.499 -36.5c-108.667 0 -193.834 28 -255.501 84s-92.5 135.667 -92.5 239c0 221.333 177 337.333 531 348l186 6v68c0 86 -18.5 149.5 -55.5 190.5s-96.167 61.5 -177.5 61.5 c-91.333 0 -194.666 -28 -309.999 -84l-51 127c54 29.333 113.167 52.333 177.5 69s128.833 25 193.5 25c130.667 0 227.5 -29 290.5 -87s94.5 -151 94.5 -279v-748h-123zM474.999 117c103.333 0 184.501 28.333 243.501 85s88.5 136 88.5 238v99l-166 -7 c-132 -4.66699 -227.167 -25.167 -285.5 -61.5s-87.5 -92.833 -87.5 -169.5c0 -60 18.167 -105.667 54.5 -137s87.166 -47 152.499 -47z"/>
<path transform="translate(12229, 10240)rotate(180) scale(-1, 1)" stroke-width="0" fill="#000000" d="M883 299c0 -102 -38.0029 -180.666 -114.003 -235.999s-182.667 -83 -320 -83c-145.333 0 -258.666 23 -339.999 69v154c52.667 -26.667 109.167 -47.667 169.5 -63s118.5 -23 174.5 -23c86.667 0 153.334 13.833 200.001 41.5s70 69.834 70 126.501 c0 42.667 -18.5 79.167 -55.5 109.5s-109.167 66.166 -216.5 107.499c-102 38 -174.5 71.167 -217.5 99.5s-75 60.5 -96 96.5s-31.5 79 -31.5 129c0 89.333 36.333 159.833 109 211.5s172.334 77.5 299.001 77.5c118 0 233.333 -24 346 -72l-59 -135 c-110 45.333 -209.667 68 -299 68c-78.667 0 -138 -12.333 -178 -37s-60 -58.667 -60 -102c0 -29.333 7.5 -54.333 22.5 -75s39.167 -40.334 72.5 -59.001s97.333 -45.667 192 -81c130 -47.333 217.833 -95 263.5 -143s68.5 -108.333 68.5 -181z"/>
<path transform="translate(13206, 10240)rotate(180) scale(-1, 1)" stroke-width="0" fill="#000000" d="M1071 0l-200.998 643.002c-12.667 39.333 -36.334 128.666 -71.001 267.999h-8c-26.667 -116.667 -50 -206.667 -70 -270l-207 -641h-192l-299 1096h174l161.5 -629c37 -144 58.167 -241 63.5 -291h8c7.33301 38 19.166 87.167 35.499 147.5s30.5 108.166 42.5 143.499 l201 629h180l196 -629c37.333 -114.667 62.666 -211 75.999 -289h8c2.66699 24 9.83398 61 21.501 111s81.167 319 208.5 807h172l-303 -1096h-197z"/>
<path transform="translate(14799, 10240)rotate(180) scale(-1, 1)" stroke-width="0" fill="#000000" d="M850 0l-33.001 156h-8c-54.667 -68.667 -109.167 -115.167 -163.5 -139.5s-122.166 -36.5 -203.499 -36.5c-108.667 0 -193.834 28 -255.501 84s-92.5 135.667 -92.5 239c0 221.333 177 337.333 531 348l186 6v68c0 86 -18.5 149.5 -55.5 190.5s-96.167 61.5 -177.5 61.5 c-91.333 0 -194.666 -28 -309.999 -84l-51 127c54 29.333 113.167 52.333 177.5 69s128.833 25 193.5 25c130.667 0 227.5 -29 290.5 -87s94.5 -151 94.5 -279v-748h-123zM474.999 117c103.333 0 184.501 28.333 243.501 85s88.5 136 88.5 238v99l-166 -7 c-132 -4.66699 -227.167 -25.167 -285.5 -61.5s-87.5 -92.833 -87.5 -169.5c0 -60 18.167 -105.667 54.5 -137s87.166 -47 152.499 -47z"/>
<path transform="translate(15772, 10240)rotate(180) scale(-1, 1)" stroke-width="0" fill="#000000" d="M676 1116c48.667 0 92.333 -4 131 -12l-23 -154c-45.333 10 -85.333 15 -120 15c-88.667 0 -164.5 -36 -227.5 -108s-94.5 -161.667 -94.5 -269v-588h-166v1096h137l19 -203h8c40.667 71.333 89.667 126.333 147 165s120.333 58 189 58z"/>
<path transform="translate(16608, 10240)rotate(180) scale(-1, 1)" stroke-width="0" fill="#000000" d="M850 0l-33.001 156h-8c-54.667 -68.667 -109.167 -115.167 -163.5 -139.5s-122.166 -36.5 -203.499 -36.5c-108.667 0 -193.834 28 -255.501 84s-92.5 135.667 -92.5 239c0 221.333 177 337.333 531 348l186 6v68c0 86 -18.5 149.5 -55.5 190.5s-96.167 61.5 -177.5 61.5 c-91.333 0 -194.666 -28 -309.999 -84l-51 127c54 29.333 113.167 52.333 177.5 69s128.833 25 193.5 25c130.667 0 227.5 -29 290.5 -87s94.5 -151 94.5 -279v-748h-123zM474.999 117c103.333 0 184.501 28.333 243.501 85s88.5 136 88.5 238v99l-166 -7 c-132 -4.66699 -227.167 -25.167 -285.5 -61.5s-87.5 -92.833 -87.5 -169.5c0 -60 18.167 -105.667 54.5 -137s87.166 -47 152.499 -47z"/>
<path transform="translate(17581, 10240)rotate(180) scale(-1, 1)" stroke-width="0" fill="#000000" d="M926 0l0.00195312 709c0 89.333 -20.333 156 -61 200s-104.334 66 -191.001 66c-114.667 0 -198.667 -31 -252 -93s-80 -164.333 -80 -307v-575h-166v1096h135l27 -150h8c34 54 81.667 95.833 143 125.5s129.666 44.5 204.999 44.5c132 0 231.333 -31.833 298 -95.5 s100 -165.5 100 -305.5v-715h-166z"/>
</g></g> 
 
 <g transform="scale(0.02197265625)" ><g transform="translate(-4299,819)" ><path transform="translate(10240, 10240)rotate(180) scale(-1, 1)" stroke-width="0" fill="#000000" d="M1016 0h-815v1462h815v-151h-645v-471h606v-150h-606v-538h645v-152z"/>
<path transform="translate(11256, 10240)rotate(180) scale(-1, 1)" stroke-width="0" fill="#000000" d="M850 0l-33.001 156h-8c-54.667 -68.667 -109.167 -115.167 -163.5 -139.5s-122.166 -36.5 -203.499 -36.5c-108.667 0 -193.834 28 -255.501 84s-92.5 135.667 -92.5 239c0 221.333 177 337.333 531 348l186 6v68c0 86 -18.5 149.5 -55.5 190.5s-96.167 61.5 -177.5 61.5 c-91.333 0 -194.666 -28 -309.999 -84l-51 127c54 29.333 113.167 52.333 177.5 69s128.833 25 193.5 25c130.667 0 227.5 -29 290.5 -87s94.5 -151 94.5 -279v-748h-123zM474.999 117c103.333 0 184.501 28.333 243.501 85s88.5 136 88.5 238v99l-166 -7 c-132 -4.66699 -227.167 -25.167 -285.5 -61.5s-87.5 -92.833 -87.5 -169.5c0 -60 18.167 -105.667 54.5 -137s87.166 -47 152.499 -47z"/>
<path transform="translate(12229, 10240)rotate(180) scale(-1, 1)" stroke-width="0" fill="#000000" d="M883 299c0 -102 -38.0029 -180.666 -114.003 -235.999s-182.667 -83 -320 -83c-145.333 0 -258.666 23 -339.999 69v154c52.667 -26.667 109.167 -47.667 169.5 -63s118.5 -23 174.5 -23c86.667 0 153.334 13.833 200.001 41.5s70 69.834 70 126.501 c0 42.667 -18.5 79.167 -55.5 109.5s-109.167 66.166 -216.5 107.499c-102 38 -174.5 71.167 -217.5 99.5s-75 60.5 -96 96.5s-31.5 79 -31.5 129c0 89.333 36.333 159.833 109 211.5s172.334 77.5 299.001 77.5c118 0 233.333 -24 346 -72l-59 -135 c-110 45.333 -209.667 68 -299 68c-78.667 0 -138 -12.333 -178 -37s-60 -58.667 -60 -102c0 -29.333 7.5 -54.333 22.5 -75s39.167 -40.334 72.5 -59.001s97.333 -45.667 192 -81c130 -47.333 217.833 -95 263.5 -143s68.5 -108.333 68.5 -181z"/>
<path transform="translate(13206, 10240)rotate(180) scale(-1, 1)" stroke-width="0" fill="#000000" d="M1071 0l-200.998 643.002c-12.667 39.333 -36.334 128.666 -71.001 267.999h-8c-26.667 -116.667 -50 -206.667 -70 -270l-207 -641h-192l-299 1096h174l161.5 -629c37 -144 58.167 -241 63.5 -291h8c7.33301 38 19.166 87.167 35.499 147.5s30.5 108.166 42.5 143.499 l201 629h180l196 -629c37.333 -114.667 62.666 -211 75.999 -289h8c2.66699 24 9.83398 61 21.501 111s81.167 319 208.5 807h172l-303 -1096h-197z"/>
<path transform="translate(14799, 10240)rotate(180) scale(-1, 1)" stroke-width="0" fill="#000000" d="M850 0l-33.001 156h-8c-54.667 -68.667 -109.167 -115.167 -163.5 -139.5s-122.166 -36.5 -203.499 -36.5c-108.667 0 -193.834 28 -255.501 84s-92.5 135.667 -92.5 239c0 221.333 177 337.333 531 348l186 6v68c0 86 -18.5 149.5 -55.5 190.5s-96.167 61.5 -177.5 61.5 c-91.333 0 -194.666 -28 -309.999 -84l-51 127c54 29.333 113.167 52.333 177.5 69s128.833 25 193.5 25c130.667 0 227.5 -29 290.5 -87s94.5 -151 94.5 -279v-748h-123zM474.999 117c103.333 0 184.501 28.333 243.501 85s88.5 136 88.5 238v99l-166 -7 c-132 -4.66699 -227.167 -25.167 -285.5 -61.5s-87.5 -92.833 -87.5 -169.5c0 -60 18.167 -105.667 54.5 -137s87.166 -47 152.499 -47z"/>
<path transform="translate(15772, 10240)rotate(180) scale(-1, 1)" stroke-width="0" fill="#000000" d="M676 1116c48.667 0 92.333 -4 131 -12l-23 -154c-45.333 10 -85.333 15 -120 15c-88.667 0 -164.5 -36 -227.5 -108s-94.5 -161.667 -94.5 -269v-588h-166v1096h137l19 -203h8c40.667 71.333 89.667 126.333 147 165s120.333 58 189 58z"/>
<path transform="translate(16608, 10240)rotate(180) scale(-1, 1)" stroke-width="0" fill="#000000" d="M850 0l-33.001 156h-8c-54.667 -68.667 -109.167 -115.167 -163.5 -139.5s-122.166 -36.5 -203.499 -36.5c-108.667 0 -193.834 28 -255.501 84s-92.5 135.667 -92.5 239c0 221.333 177 337.333 531 348l186 6v68c0 86 -18.5 149.5 -55.5 190.5s-96.167 61.5 -177.5 61.5 c-91.333 0 -194.666 -28 -309.999 -84l-51 127c54 29.333 113.167 52.333 177.5 69s128.833 25 193.5 25c130.667 0 227.5 -29 290.5 -87s94.5 -151 94.5 -279v-748h-123zM474.999 117c103.333 0 184.501 28.333 243.501 85s88.5 136 88.5 238v99l-166 -7 c-132 -4.66699 -227.167 -25.167 -285.5 -61.5s-87.5 -92.833 -87.5 -169.5c0 -60 18.167 -105.667 54.5 -137s87.166 -47 152.499 -47z"/>
<path transform="translate(17581, 10240)rotate(180) scale(-1, 1)" stroke-width="0" fill="#000000" d="M926 0l0.00195312 709c0 89.333 -20.333 156 -61 200s-104.334 66 -191.001 66c-114.667 0 -198.667 -31 -252 -93s-80 -164.333 -80 -307v-575h-166v1096h135l27 -150h8c34 54 81.667 95.833 143 125.5s129.666 44.5 204.999 44.5c132 0 231.333 -31.833 298 -95.5 s100 -165.5 100 -305.5v-715h-166z"/>
</g></g> 
 
 <g transform="scale(0.02197265625)" ><g transform="translate(-4299,819)" ><path transform="translate(10240, 10240)rotate(180) scale(-1, 1)" stroke-width="0" fill="#000000" d="M1016 0h-815v1462h815v-151h-645v-471h606v-150h-606v-538h645v-152z"/>
<path transform="translate(11256, 10240)rotate(180) scale(-1, 1)" stroke-width="0" fill="#000000" d="M850 0l-33.001 156h-8c-54.667 -68.667 -109.167 -115.167 -163.5 -139.5s-122.166 -36.5 -203.499 -36.5c-108.667 0 -193.834 28 -255.501 84s-92.5 135.667 -92.5 239c0 221.333 177 337.333 531 348l186 6v68c0 86 -18.5 149.5 -55.5 190.5s-96.167 61.5 -177.5 61.5 c-91.333 0 -194.666 -28 -309.999 -84l-51 127c54 29.333 113.167 52.333 177.5 69s128.833 25 193.5 25c130.667 0 227.5 -29 290.5 -87s94.5 -151 94.5 -279v-748h-123zM474.999 117c103.333 0 184.501 28.333 243.501 85s88.5 136 88.5 238v99l-166 -7 c-132 -4.66699 -227.167 -25.167 -285.5 -61.5s-87.5 -92.833 -87.5 -169.5c0 -60 18.167 -105.667 54.5 -137s87.166 -47 152.499 -47z"/>
<path transform="translate(12229, 10240)rotate(180) scale(-1, 1)" stroke-width="0" fill="#000000" d="M883 299c0 -102 -38.0029 -180.666 -114.003 -235.999s-182.667 -83 -320 -83c-145.333 0 -258.666 23 -339.999 69v154c52.667 -26.667 109.167 -47.667 169.5 -63s118.5 -23 174.5 -23c86.667 0 153.334 13.833 200.001 41.5s70 69.834 70 126.501 c0 42.667 -18.5 79.167 -55.5 109.5s-109.167 66.166 -216.5 107.499c-102 38 -174.5 71.167 -217.5 99.5s-75 60.5 -96 96.5s-31.5 79 -31.5 129c0 89.333 36.333 159.833 109 211.5s172.334 77.5 299.001 77.5c118 0 233.333 -24 346 -72l-59 -135 c-110 45.333 -209.667 68 -299 68c-78.667 0 -138 -12.333 -178 -37s-60 -58.667 -60 -102c0 -29.333 7.5 -54.333 22.5 -75s39.167 -40.334 72.5 -59.001s97.333 -45.667 192 -81c130 -47.333 217.833 -95 263.5 -143s68.5 -108.333 68.5 -181z"/>
<path transform="translate(13206, 10240)rotate(180) scale(-1, 1)" stroke-width="0" fill="#000000" d="M1071 0l-200.998 643.002c-12.667 39.333 -36.334 128.666 -71.001 267.999h-8c-26.667 -116.667 -50 -206.667 -70 -270l-207 -641h-192l-299 1096h174l161.5 -629c37 -144 58.167 -241 63.5 -291h8c7.33301 38 19.166 87.167 35.499 147.5s30.5 108.166 42.5 143.499 l201 629h180l196 -629c37.333 -114.667 62.666 -211 75.999 -289h8c2.66699 24 9.83398 61 21.501 111s81.167 319 208.5 807h172l-303 -1096h-197z"/>
<path transform="translate(14799, 10240)rotate(180) scale(-1, 1)" stroke-width="0" fill="#000000" d="M850 0l-33.001 156h-8c-54.667 -68.667 -109.167 -115.167 -163.5 -139.5s-122.166 -36.5 -203.499 -36.5c-108.667 0 -193.834 28 -255.501 84s-92.5 135.667 -92.5 239c0 221.333 177 337.333 531 348l186 6v68c0 86 -18.5 149.5 -55.5 190.5s-96.167 61.5 -177.5 61.5 c-91.333 0 -194.666 -28 -309.999 -84l-51 127c54 29.333 113.167 52.333 177.5 69s128.833 25 193.5 25c130.667 0 227.5 -29 290.5 -87s94.5 -151 94.5 -279v-748h-123zM474.999 117c103.333 0 184.501 28.333 243.501 85s88.5 136 88.5 238v99l-166 -7 c-132 -4.66699 -227.167 -25.167 -285.5 -61.5s-87.5 -92.833 -87.5 -169.5c0 -60 18.167 -105.667 54.5 -137s87.166 -47 152.499 -47z"/>
<path transform="translate(15772, 10240)rotate(180) scale(-1, 1)" stroke-width="0" fill="#000000" d="M676 1116c48.667 0 92.333 -4 131 -12l-23 -154c-45.333 10 -85.333 15 -120 15c-88.667 0 -164.5 -36 -227.5 -108s-94.5 -161.667 -94.5 -269v-588h-166v1096h137l19 -203h8c40.667 71.333 89.667 126.333 147 165s120.333 58 189 58z"/>
<path transform="translate(16608, 10240)rotate(180) scale(-1, 1)" stroke-width="0" fill="#000000" d="M850 0l-33.001 156h-8c-54.667 -68.667 -109.167 -115.167 -163.5 -139.5s-122.166 -36.5 -203.499 -36.5c-108.667 0 -193.834 28 -255.501 84s-92.5 135.667 -92.5 239c0 221.333 177 337.333 531 348l186 6v68c0 86 -18.5 149.5 -55.5 190.5s-96.167 61.5 -177.5 61.5 c-91.333 0 -194.666 -28 -309.999 -84l-51 127c54 29.333 113.167 52.333 177.5 69s128.833 25 193.5 25c130.667 0 227.5 -29 290.5 -87s94.5 -151 94.5 -279v-748h-123zM474.999 117c103.333 0 184.501 28.333 243.501 85s88.5 136 88.5 238v99l-166 -7 c-132 -4.66699 -227.167 -25.167 -285.5 -61.5s-87.5 -92.833 -87.5 -169.5c0 -60 18.167 -105.667 54.5 -137s87.166 -47 152.499 -47z"/>
<path transform="translate(17581, 10240)rotate(180) scale(-1, 1)" stroke-width="0" fill="#000000" d="M926 0l0.00195312 709c0 89.333 -20.333 156 -61 200s-104.334 66 -191.001 66c-114.667 0 -198.667 -31 -252 -93s-80 -164.333 -80 -307v-575h-166v1096h135l27 -150h8c34 54 81.667 95.833 143 125.5s129.666 44.5 204.999 44.5c132 0 231.333 -31.833 298 -95.5 s100 -165.5 100 -305.5v-715h-166z"/>
</g></g> 
</g>
<!-- Bottom--> 
<g transform="translate(472.5, 292.5) " > 
<polygon style="stroke:#000000; fill:none; stroke-width:0.9" points="21.24, 21.24 56.25, 21.24 56.25, 0 112.5, 0 112.5, 21.24 157.5, 21.24 157.5, 0 202.5, 0 202.5, 21.24 247.5, 21.24 247.5, 0 292.5, 0 292.5, 21.24 337.5, 21.24 337.5, 0 393.75, 0 393.75, 21.24 428.76, 21.24 428.76, 56.25 450, 56.25 450, 112.5 428.76, 112.5 428.76, 157.5 450, 157.5 450, 202.5 428.76, 202.5 428.76, 247.5 450, 247.5 450, 292.5 428.76, 292.5 428.76, 337.5 450, 337.5 450, 393.75 428.76, 393.75 428.76, 428.76 393.75, 428.76 393.75, 450 337.5, 450 337.5, 428.76 292.5, 428.76 292.5, 450 247.5, 450 247.5, 428.76 202.5, 428.76 202.5, 450 157.5, 450 157.5, 428.76 112.5, 428.76 112.5, 450 56.25, 450 56.25, 428.76 21.24, 428.76 21.24, 393.75 0, 393.75 0, 337.5 21.24, 337.5 21.24, 292.5 0, 292.5 0, 247.5 21.24, 247.5 21.24, 202.5 0, 202.5 0, 157.5 21.24, 157.5 21.24, 112.5 0, 112.5 0, 56.25 21.24, 56.25 "/> 
</g></svg>